<?xml version="1.0" standalone="no"?>
<!DOCTYPE svg PUBLIC "-//W3C//DTD SVG 20010904//EN"
 "http://www.w3.org/TR/2001/REC-SVG-20010904/DTD/svg10.dtd">
<svg version="1.0" xmlns="http://www.w3.org/2000/svg"
 width="1057.000000pt" height="1057.000000pt" viewBox="0 0 1057.000000 1057.000000"
 preserveAspectRatio="xMidYMid meet">
<metadata>
Created by potrace 1.14, written by Peter Selinger 2001-2017
</metadata>
<g transform="translate(0.000000,1057.000000) scale(0.100000,-0.100000)"
fill="#000000" stroke="none">
<path d="M9297 9684 c-1 -1 -24 -4 -52 -7 -47 -5 -90 -13 -90 -17 0 -1 -16 -4
-35 -7 -19 -2 -37 -9 -38 -14 -2 -5 -8 -7 -13 -4 -5 3 -19 1 -31 -6 -22 -12
-72 -27 -113 -34 -11 -2 -20 -4 -20 -5 0 -2 -37 -11 -52 -12 -7 -1 -13 -4 -13
-8 0 -3 -10 -7 -22 -7 -13 -1 -32 -6 -43 -12 -57 -26 -94 -39 -130 -46 -21 -4
-51 -15 -66 -26 -15 -10 -32 -19 -38 -19 -5 0 -32 -12 -58 -26 -26 -15 -71
-39 -100 -54 -29 -15 -49 -30 -46 -34 4 -3 -1 -6 -10 -6 -9 0 -17 -4 -17 -10
0 -5 -6 -10 -14 -10 -7 0 -32 -21 -54 -47 -72 -86 -79 -93 -88 -93 -5 0 -18
-13 -29 -29 -10 -16 -23 -27 -27 -25 -4 3 -8 1 -8 -5 0 -6 -12 -23 -27 -39
-54 -56 -83 -92 -83 -103 0 -5 -4 -8 -9 -5 -5 3 -19 -10 -32 -29 -13 -19 -27
-35 -31 -35 -5 0 -8 -7 -8 -15 0 -8 -4 -15 -10 -15 -5 0 -18 -17 -29 -37 -10
-21 -28 -56 -40 -78 -11 -21 -21 -45 -21 -52 0 -10 -13 -12 -48 -10 -27 2 -53
6 -58 9 -5 2 -29 6 -54 7 -25 2 -49 6 -55 9 -5 4 -17 8 -25 9 -8 1 -35 6 -60
10 -66 11 -821 10 -845 -1 -11 -6 -24 -11 -30 -12 -5 -1 -13 -3 -17 -4 -5 -1
-12 -4 -18 -5 -5 -1 -11 -3 -12 -5 -20 -15 -176 -23 -503 -24 -226 -2 -349 -6
-366 -13 -15 -7 -30 -9 -33 -6 -3 4 -6 1 -6 -5 0 -7 -9 -12 -19 -12 -11 0 -23
-5 -26 -10 -4 -7 -12 -7 -18 -2 -7 4 -23 6 -37 4 -67 -10 -596 -1 -710 12 -30
4 -82 9 -115 11 -33 2 -61 4 -62 5 -2 2 -6 3 -10 4 -64 16 -89 19 -153 21 -42
1 -81 5 -88 9 -7 4 -12 2 -12 -4 0 -7 -6 -8 -17 -2 -17 8 -46 11 -143 16 -19
1 -41 5 -49 10 -21 13 -334 10 -360 -3 -11 -7 -21 -8 -21 -4 0 10 -131 10
-148 -1 -7 -4 -12 -3 -12 2 0 6 -17 8 -37 6 -21 -3 -54 -6 -73 -8 -19 -2 -42
-6 -50 -9 -8 -3 -28 -9 -45 -13 -16 -4 -34 -8 -40 -10 -50 -14 -143 -23 -235
-21 -60 1 -110 -1 -110 -5 0 -4 -10 -4 -22 1 -13 4 -35 5 -50 0 -16 -4 -28 -4
-28 0 0 3 -9 7 -20 7 -11 0 -20 -5 -20 -10 0 -6 -5 -5 -11 1 -7 7 -21 8 -40 3
-16 -5 -29 -5 -29 -1 0 3 -9 7 -20 7 -11 0 -20 -5 -20 -10 0 -6 -5 -5 -11 1
-7 7 -21 8 -40 3 -16 -5 -29 -5 -29 -1 0 3 -9 7 -20 7 -11 0 -20 -5 -20 -10 0
-6 -5 -5 -11 1 -7 7 -21 8 -40 3 -16 -5 -29 -5 -29 -1 0 3 -9 7 -20 7 -11 0
-20 -5 -20 -10 0 -6 -5 -5 -11 1 -6 6 -18 9 -25 6 -10 -4 -14 3 -14 21 0 14
-5 26 -11 26 -5 0 -8 4 -5 9 7 11 -21 35 -69 57 -31 15 -40 24 -40 44 1 14 -2
27 -6 30 -4 3 -9 12 -11 20 -4 20 -29 39 -50 40 -10 0 -25 17 -37 44 -10 24
-28 53 -40 65 -36 36 -137 82 -189 86 -27 2 -58 8 -68 13 -11 5 -36 18 -57 28
-20 10 -37 22 -37 27 0 4 -4 6 -9 3 -5 -4 -11 -2 -13 3 -1 6 -14 11 -28 13
-14 2 -35 9 -47 16 -13 7 -23 11 -23 8 0 -2 -25 2 -56 9 -31 7 -71 12 -90 11
-19 -1 -34 1 -34 4 0 3 -15 5 -32 6 -62 2 -108 8 -108 14 0 4 -167 6 -370 6
-298 -1 -372 -4 -379 -14 -5 -8 -11 -13 -15 -13 -14 1 -36 -12 -36 -23 0 -6
-18 -31 -40 -56 -22 -24 -43 -52 -46 -62 -3 -10 -10 -18 -15 -18 -5 0 -8 -3
-7 -7 1 -9 -6 -27 -43 -111 -16 -35 -29 -65 -29 -67 0 -2 -5 -16 -12 -32 -6
-15 -12 -34 -14 -42 -1 -8 -8 -17 -14 -21 -7 -4 -11 -9 -10 -11 1 -2 -4 -17
-10 -34 -7 -16 -14 -39 -16 -50 -2 -11 -7 -31 -10 -45 -12 -49 -10 -145 4
-180 8 -19 14 -36 13 -37 0 -2 -1 -4 0 -5 3 -10 10 -46 11 -60 1 -9 6 -14 10
-12 4 3 8 0 8 -6 0 -7 8 -24 18 -38 28 -41 53 -115 57 -169 2 -26 8 -61 14
-76 6 -15 10 -31 9 -35 -1 -4 8 -30 21 -58 15 -35 34 -58 60 -75 22 -13 36
-28 33 -33 -3 -5 0 -6 6 -2 6 3 13 2 17 -4 3 -5 14 -10 23 -10 9 0 33 -10 52
-22 19 -12 38 -23 43 -24 4 -1 9 -3 12 -4 5 -3 7 -3 45 -13 31 -9 144 -17 235
-18 94 -1 107 -5 99 -32 -4 -12 -13 -27 -20 -34 -7 -7 -16 -23 -20 -36 -4 -12
-17 -38 -29 -57 -28 -46 -64 -162 -70 -229 -3 -30 -8 -57 -10 -61 -3 -5 -7
-27 -10 -50 -3 -24 -8 -47 -11 -51 -9 -15 -16 -181 -18 -444 -1 -200 2 -268
12 -294 15 -38 19 -55 28 -121 3 -25 11 -54 16 -64 6 -11 12 -70 13 -131 1
-61 5 -125 9 -141 3 -16 8 -49 11 -74 3 -24 11 -62 17 -85 14 -46 19 -513 7
-560 -10 -37 -18 -78 -26 -130 -10 -66 -6 -241 6 -264 7 -12 14 -47 17 -79 12
-136 14 -173 19 -282 13 -267 13 -272 28 -310 3 -8 6 -22 6 -30 7 -158 23
-300 37 -321 3 -5 7 -22 9 -39 3 -16 7 -45 10 -63 4 -17 8 -109 9 -203 2 -120
7 -177 17 -195 15 -26 18 -83 22 -419 2 -118 0 -225 -4 -236 -13 -38 -21 -105
-25 -229 -2 -66 -7 -174 -9 -240 -9 -212 -11 -569 -3 -592 4 -13 9 -42 11 -67
3 -24 8 -49 12 -56 4 -7 9 -37 11 -68 13 -168 14 -177 40 -254 8 -26 20 -48
25 -48 5 0 9 -5 9 -11 0 -12 51 -69 62 -69 5 0 17 -9 27 -19 11 -11 39 -25 63
-31 24 -6 50 -15 59 -19 31 -18 104 -33 172 -36 38 -2 79 -10 91 -18 11 -8 45
-17 74 -21 30 -3 66 -13 80 -20 26 -13 61 -21 144 -31 20 -3 48 -9 62 -15 15
-5 26 -7 26 -5 0 3 17 -2 37 -11 21 -8 53 -18 70 -20 18 -2 52 -11 75 -19 69
-23 188 -46 254 -50 34 -1 72 -6 85 -10 51 -17 825 -27 874 -12 56 17 860 29
910 14 17 -5 242 -11 500 -13 259 -2 571 -5 694 -6 161 -2 239 1 275 10 28 7
68 15 89 17 21 2 43 8 50 12 6 4 129 8 272 8 143 1 266 5 274 9 7 5 52 10 100
11 47 2 102 6 121 10 19 4 51 8 70 10 19 2 45 6 58 9 12 4 32 8 45 11 39 10
148 16 342 20 105 2 201 6 215 10 14 3 48 8 77 10 28 1 57 7 65 11 7 5 43 9
80 10 48 1 82 9 124 28 32 15 74 29 94 32 48 7 216 105 300 174 25 21 59 44
75 53 17 8 36 26 43 39 7 12 44 50 82 82 39 33 70 64 70 71 0 6 14 24 30 40
17 16 30 34 30 41 0 7 3 14 8 16 4 2 24 25 45 53 42 55 65 122 73 211 2 32 9
77 15 99 13 45 16 64 24 115 6 40 12 72 21 114 3 16 8 45 9 65 2 20 6 52 10
71 4 19 8 127 10 240 3 190 8 250 21 272 3 5 7 34 10 66 2 31 6 71 8 87 2 17
7 53 10 80 4 28 12 75 18 105 18 92 19 120 22 575 2 356 -1 449 -12 490 -8 28
-16 75 -18 105 -2 30 -6 71 -9 90 -4 19 -7 42 -9 50 -1 9 -6 22 -11 29 -9 15
-14 111 -19 361 -1 80 -7 154 -13 165 -7 12 -9 57 -6 115 6 130 10 1363 4
1375 -3 5 -6 35 -7 65 -1 30 -5 82 -9 115 -4 33 -9 92 -11 130 -3 66 -7 113
-20 230 -3 28 -7 129 -8 225 -3 167 5 237 25 224 5 -3 9 0 9 5 0 6 9 20 20 31
11 11 17 20 13 20 -4 0 2 7 13 16 10 8 13 12 5 8 -13 -7 34 63 51 76 3 3 10
18 13 33 4 15 11 27 17 27 5 0 7 4 4 9 -3 5 7 26 22 47 16 22 29 43 29 47 1 5
14 25 29 44 16 20 33 43 38 51 5 9 23 31 40 50 23 25 37 33 61 31 16 -2 35 -5
40 -8 6 -3 24 -6 40 -7 17 -1 37 -4 45 -7 8 -3 35 -11 60 -17 25 -7 51 -17 58
-22 6 -6 12 -7 12 -2 0 5 4 4 8 -3 4 -6 19 -14 32 -17 14 -3 36 -8 50 -11 32
-8 72 -8 136 -1 46 5 58 12 112 63 33 32 67 72 76 88 9 17 26 45 36 63 11 18
17 38 14 44 -4 6 -2 8 4 4 10 -6 52 38 52 55 0 5 12 22 28 38 15 16 36 52 47
81 11 28 28 60 37 70 14 15 33 67 43 122 2 9 8 25 13 35 11 23 4 188 -8 188
-1 0 -3 8 -5 18 -2 10 -7 26 -11 35 -4 9 -8 20 -8 23 -1 3 -12 30 -25 60 -13
30 -30 68 -36 84 -7 17 -22 51 -34 77 -12 26 -21 54 -21 62 0 9 -5 16 -11 16
-5 0 -8 4 -5 9 4 5 2 11 -2 13 -4 1 -22 23 -39 48 -17 25 -40 55 -51 66 -12
12 -18 25 -15 28 4 3 -1 6 -11 6 -11 0 -15 5 -10 13 4 6 4 9 -1 5 -4 -4 -14
-3 -22 3 -7 6 -13 8 -14 3 0 -14 -49 88 -49 103 0 7 -4 13 -10 13 -5 0 -10 6
-10 13 0 14 -65 83 -164 175 -16 15 -38 35 -48 45 -10 9 -23 17 -29 17 -6 0
-17 7 -26 15 -8 8 -19 13 -24 10 -5 -4 -9 -1 -9 4 0 6 -3 10 -7 10 -5 -1 -10
0 -13 1 -25 10 -145 21 -153 14z m-797 -479 c0 -2 -10 -9 -22 -15 -22 -11 -22
-10 -4 4 21 17 26 19 26 11z m-7665 -1115 c-3 -5 -1 -10 4 -10 6 0 11 -4 11
-10 0 -5 -7 -10 -16 -10 -8 0 -12 5 -9 10 3 6 0 10 -7 10 -9 0 -9 3 2 10 19
12 23 12 15 0z m8917 -7 c-6 -9 -18 -18 -28 -19 -15 -2 -14 1 6 16 31 24 33
24 22 3z m-1915 -296 c55 -3 105 -7 111 -11 11 -6 106 -23 149 -25 21 -2 78
-66 108 -122 25 -46 29 -67 31 -144 1 -49 5 -117 9 -150 5 -33 8 -67 7 -75 -1
-25 -1 -108 -1 -255 1 -298 -14 -456 -49 -530 -16 -32 -32 -94 -34 -125 0 -3
-5 -16 -10 -30 -5 -14 -12 -36 -14 -50 -8 -44 -57 -102 -100 -117 -21 -8 -63
-24 -93 -35 -40 -16 -80 -22 -151 -23 -57 -1 -106 -8 -121 -15 -17 -10 -88
-15 -254 -17 -459 -7 -841 -6 -905 2 -73 9 -1079 10 -1290 0 -74 -3 -198 -7
-275 -9 -77 -2 -151 -7 -165 -11 -14 -4 -68 -8 -120 -10 -52 -2 -122 -7 -155
-11 -71 -8 -1389 -9 -1490 -1 -75 6 -112 12 -160 27 -16 5 -58 11 -92 15 -34
3 -68 7 -75 10 -7 3 -26 7 -43 9 -16 2 -50 9 -75 14 -25 6 -67 13 -94 17 -27
3 -55 10 -61 15 -14 12 -141 40 -242 54 -22 3 -104 52 -140 84 -11 9 -28 32
-38 51 -9 19 -26 43 -36 54 -10 12 -20 30 -21 41 -2 36 -6 50 -34 113 -23 52
-30 110 -29 258 2 154 8 202 35 255 9 19 23 53 30 75 7 22 19 47 26 55 18 21
48 92 45 107 -1 7 3 31 9 53 10 36 14 40 33 34 12 -3 24 -6 27 -6 31 -1 50 5
80 24 38 24 39 24 150 32 41 4 89 11 106 16 17 6 41 13 53 15 11 3 31 7 44 10
12 3 60 7 107 10 136 7 232 15 242 21 20 12 109 16 493 19 494 5 622 10 660
26 21 8 112 13 300 15 263 2 374 7 425 19 14 4 75 8 135 10 119 5 133 6 152
18 7 5 36 10 65 13 29 3 67 7 83 9 17 1 66 12 110 23 44 12 100 23 125 25 25
3 63 12 85 22 33 15 78 18 275 21 540 8 658 12 670 19 8 5 50 10 94 11 45 1
95 5 112 8 46 9 150 17 240 20 45 2 86 6 92 10 6 3 48 9 93 12 46 3 84 6 86 7
4 4 556 -1 670 -6z m-5425 -2235 c7 -17 12 -131 14 -317 1 -159 5 -310 9 -335
4 -25 8 -63 9 -85 l1 -40 -195 0 c-107 -1 -213 3 -235 8 -22 5 -62 10 -90 12
-27 2 -53 4 -56 4 -7 1 -4 75 6 171 4 36 8 115 10 175 2 85 7 121 23 158 12
26 19 47 17 47 -7 0 26 103 46 139 10 20 19 32 19 27 0 -5 6 -4 13 2 7 6 40
14 73 17 32 4 73 8 89 11 17 3 53 6 80 8 28 2 57 6 65 9 16 6 45 12 73 14 11
1 22 -9 29 -25z m688 3 c8 -5 71 -10 140 -11 69 -1 152 -5 185 -9 33 -3 85 -8
115 -10 55 -4 84 -9 122 -21 18 -5 117 -14 171 -15 15 0 17 -7 14 -42 -2 -23
2 -54 9 -68 13 -27 13 -174 0 -284 -3 -27 -8 -93 -11 -145 -4 -98 -13 -171
-22 -180 -5 -5 -912 -3 -1039 3 -50 2 -96 7 -102 10 -5 4 -10 24 -11 44 0 21
-3 49 -7 63 -14 49 -17 602 -4 641 l12 36 207 -2 c114 0 213 -5 221 -10z
m3640 -52 c14 -5 120 -8 235 -8 116 1 215 0 220 -2 6 -2 10 -138 10 -381 -1
-239 3 -395 10 -427 9 -41 12 -142 6 -201 -1 -12 -50 -12 -131 1 -25 4 -112 9
-195 10 -82 1 -166 5 -185 8 -19 4 -60 9 -90 12 -165 15 -199 18 -240 20 -25
1 -68 5 -97 10 l-52 7 4 102 c4 109 7 133 25 186 7 22 13 153 16 344 2 171 6
311 7 312 1 1 17 4 35 7 19 3 36 7 38 9 8 9 360 0 384 -9z m-2563 -38 c69 -3
130 -12 144 -21 4 -2 31 -7 61 -10 29 -3 76 -8 103 -11 28 -3 154 -5 282 -6
l232 -1 -6 -25 c-3 -15 -12 -39 -21 -55 -8 -17 -15 -65 -17 -117 -2 -48 -6
-92 -9 -97 -7 -11 -19 -110 -18 -152 0 -14 -5 -41 -11 -60 -6 -19 -11 -78 -11
-130 l-1 -95 -50 1 c-47 1 -101 8 -155 20 -14 3 -54 7 -90 10 -109 7 -203 14
-250 18 -25 3 -84 7 -131 10 -47 3 -97 9 -110 14 -13 4 -34 7 -46 6 -20 -1
-22 3 -18 25 3 14 8 58 11 96 2 39 6 99 9 135 2 36 7 81 11 100 8 46 8 237 1
275 -4 17 -10 43 -13 59 -6 25 -5 28 14 22 12 -4 52 -9 89 -11z m1877 -4 c4
-14 1 -194 -6 -451 -2 -52 -7 -101 -11 -107 -10 -16 -16 -65 -23 -188 -6 -132
-5 -126 -23 -121 -31 9 -134 20 -296 31 -33 3 -85 7 -115 9 -30 3 -107 8 -170
11 -104 5 -190 12 -245 18 -39 5 -44 15 -40 92 2 40 6 79 10 85 3 6 8 43 11
83 2 39 9 97 15 127 7 30 13 84 14 120 1 36 9 81 17 100 14 34 15 79 4 126 -5
20 -3 22 27 20 17 -2 46 1 62 7 17 5 89 11 160 13 178 5 314 12 350 18 47 8
89 17 92 19 1 2 38 3 82 3 65 0 82 -3 85 -15z m1621 5 c39 -2 87 -11 108 -20
20 -9 37 -14 37 -11 0 3 21 -6 48 -19 127 -65 251 -237 312 -433 21 -67 26
-91 35 -168 3 -22 9 -51 14 -65 13 -35 39 -170 39 -200 -1 -34 9 -107 16 -118
3 -5 -63 -7 -152 -5 -86 1 -249 4 -362 6 -113 1 -211 6 -218 10 -15 10 -60 20
-84 19 -22 -1 -20 -10 -24 123 -2 61 -6 155 -10 210 -9 126 -10 645 -2 666 6
16 48 17 243 5z m-5731 -903 c6 -4 124 -7 263 -8 181 0 256 -4 264 -12 7 -7
13 -48 15 -100 2 -97 12 -222 19 -232 2 -4 6 -27 9 -51 8 -60 15 -102 22 -120
4 -8 8 -46 10 -85 3 -66 5 -81 20 -148 9 -42 12 -97 5 -97 -3 0 -26 5 -51 11
-59 14 -188 20 -451 22 l-215 1 1 51 c0 27 -4 61 -11 75 -8 17 -10 102 -8 275
4 222 9 426 13 432 2 5 84 -8 95 -14z m1041 -19 c281 -5 561 -6 695 -1 58 2
112 2 121 0 13 -4 15 -23 14 -121 -1 -64 -6 -139 -10 -167 -9 -56 -9 -229 0
-350 3 -44 7 -122 9 -174 l3 -93 -51 6 c-55 7 -137 8 -429 3 -103 -2 -190 -1
-192 3 -2 3 -36 7 -75 8 -40 2 -84 8 -98 13 -25 10 -97 21 -139 22 -13 1 -23
3 -24 7 -1 3 -2 16 -4 30 -1 14 -8 54 -15 90 -6 36 -14 103 -16 150 -4 74 -8
103 -20 145 -5 17 -14 58 -20 95 -4 19 -9 44 -11 55 -2 11 -6 70 -9 130 -2 61
-5 119 -8 130 -5 28 0 33 31 28 16 -2 127 -6 248 -9z m1168 -19 c77 -4 180
-14 232 -21 22 -3 85 -7 140 -9 55 -1 125 -8 155 -14 30 -7 91 -15 135 -17 44
-3 82 -9 85 -15 8 -11 5 -329 -4 -422 -3 -37 -13 -81 -22 -98 -9 -18 -17 -46
-19 -63 -2 -17 -7 -58 -11 -91 -4 -33 -7 -87 -8 -120 -1 -44 -5 -59 -15 -57
-7 1 -52 5 -100 7 -47 3 -104 8 -126 11 -43 7 -204 13 -425 17 l-135 2 -3 160
c-8 363 -2 728 12 737 6 4 19 5 29 2 11 -3 47 -7 80 -9z m1184 -101 c54 -2
123 -6 153 -8 30 -3 89 -7 130 -10 41 -3 98 -8 125 -11 28 -4 75 -8 105 -10
56 -3 118 -13 130 -20 14 -9 3 -409 -16 -540 -3 -16 -7 -70 -9 -120 -2 -49 -6
-119 -9 -155 -3 -36 -5 -70 -5 -77 -1 -12 -14 -11 -141 2 -87 10 -93 10 -110
17 -8 4 -31 9 -50 12 -73 12 -96 16 -135 22 -52 10 -74 12 -175 18 -47 3 -98
8 -115 12 -16 3 -55 7 -85 8 -31 1 -61 5 -67 9 -18 11 -1 214 22 263 24 52 35
139 40 334 1 74 5 144 8 155 3 12 2 40 -3 63 -4 23 -5 44 -2 47 3 3 30 3 58
-1 29 -3 97 -8 151 -10z m973 -109 c25 -3 81 -7 125 -10 44 -2 103 -7 130 -10
28 -4 64 -8 80 -9 17 -2 47 -7 69 -11 21 -4 111 -9 200 -10 88 -2 172 -6 186
-10 14 -3 49 -7 78 -8 66 -3 70 -10 77 -114 3 -43 8 -85 10 -94 3 -9 7 -61 9
-115 3 -54 8 -117 13 -139 5 -22 8 -121 8 -220 l0 -180 -286 0 c-158 -1 -320
3 -360 7 -88 10 -166 17 -234 22 -27 3 -61 7 -74 10 -13 3 -55 8 -94 11 -39 4
-74 8 -78 11 -4 2 -6 21 -4 42 1 20 6 80 10 132 4 52 9 111 11 130 11 87 17
228 23 542 1 34 3 36 29 32 15 -2 47 -6 72 -9z m1340 -101 c385 -8 605 -17
605 -23 0 -2 8 -4 18 -6 11 -2 22 -6 25 -10 3 -3 7 -66 8 -139 1 -74 5 -139 9
-145 3 -7 8 -31 10 -54 2 -23 8 -60 12 -82 5 -22 9 -107 9 -190 l-1 -150 -55
2 c-139 7 -621 5 -670 -2 -30 -4 -64 -8 -75 -10 -19 -3 -21 3 -23 74 -6 235
-11 340 -17 371 -4 19 -9 73 -11 120 -9 199 -12 239 -19 251 -6 9 -3 10 11 4
10 -5 84 -10 164 -11z m-5185 -711 c39 -8 87 -17 108 -20 20 -3 37 -6 38 -7 0
0 3 -21 6 -46 3 -25 11 -63 17 -85 8 -27 12 -124 12 -290 l-1 -250 -40 2 c-22
2 -112 5 -200 7 -146 4 -181 7 -225 19 -8 2 -28 7 -45 12 -16 4 -41 13 -55 20
-14 7 -41 16 -60 19 -19 4 -42 8 -50 10 -8 2 -25 -1 -37 -5 -19 -7 -23 -5 -23
10 0 10 -7 38 -15 61 -25 71 -26 86 -30 328 l-3 232 266 -1 c190 -1 287 -6
337 -16z m454 -58 c20 -12 153 -18 481 -21 392 -5 440 -6 441 -13 1 -3 2 -17
4 -31 4 -43 15 -114 22 -145 4 -16 8 -68 10 -115 8 -218 10 -316 6 -327 -3 -8
-20 -11 -51 -7 -26 2 -72 7 -102 10 -30 3 -233 7 -450 8 -217 2 -398 4 -402 5
-5 0 -8 121 -8 269 0 160 -4 281 -11 302 -6 19 -12 47 -15 62 -5 25 -4 26 29
18 19 -4 40 -11 46 -15z m1576 -50 c39 -3 99 -8 135 -10 108 -6 193 -15 199
-21 3 -3 7 -103 8 -222 2 -239 7 -295 28 -361 8 -25 15 -48 15 -51 0 -8 -122
-5 -255 5 -44 3 -107 8 -140 10 -33 2 -60 4 -60 5 0 1 -40 3 -90 5 -49 1 -112
6 -140 10 -27 4 -58 7 -67 7 -16 -1 -18 12 -19 111 -3 236 -6 323 -13 352 -15
70 -17 82 -21 126 l-4 46 177 -3 c97 -1 209 -6 247 -9z m675 -59 c51 -8 125
-15 205 -21 39 -2 81 -7 95 -9 14 -3 39 -7 55 -10 51 -9 89 -17 130 -28 22 -6
60 -12 85 -13 105 -6 186 -17 194 -26 14 -13 24 -391 14 -519 -4 -61 -13 -81
-31 -75 -7 2 -36 7 -65 10 -30 3 -58 7 -63 10 -5 3 -75 8 -156 11 -333 10
-409 13 -433 19 -14 4 -34 8 -45 9 -19 2 -42 36 -50 74 -2 9 -11 37 -19 61 -9
24 -19 65 -22 90 -6 50 -13 412 -8 422 4 6 47 4 114 -5z m1089 -130 c6 -4 43
-8 83 -11 90 -5 175 -13 208 -21 46 -10 182 -15 445 -17 l260 -2 -3 -29 c-2
-15 -10 -51 -18 -80 -12 -43 -36 -144 -49 -209 -2 -10 -6 -26 -9 -35 -3 -9 -8
-33 -11 -52 -3 -19 -11 -53 -17 -75 -6 -22 -11 -47 -11 -55 0 -34 -14 -36
-284 -34 -259 2 -344 6 -408 21 -16 4 -86 7 -155 7 -102 1 -124 4 -122 15 5
21 15 251 14 291 -1 19 -4 94 -6 166 l-5 132 39 -3 c22 -2 44 -6 49 -9z m2071
-20 c13 -5 15 -33 14 -189 -2 -178 -8 -280 -19 -297 -3 -5 -8 -29 -10 -53 -3
-25 -7 -53 -9 -63 -2 -11 -7 -39 -12 -64 -7 -43 -10 -55 -13 -64 0 -2 -27 3
-58 11 -31 8 -93 16 -137 18 -45 2 -93 6 -108 9 -16 3 -38 8 -50 10 -13 2 -43
9 -68 16 -25 7 -67 14 -95 16 -50 3 -79 6 -168 19 -53 8 -129 13 -195 14 l-43
1 6 38 c3 20 7 44 10 52 2 8 6 26 9 40 2 14 10 48 16 75 14 60 19 82 25 116 3
14 11 44 19 67 8 23 13 42 9 42 -3 0 -1 6 4 13 6 6 11 19 11 27 0 8 3 26 7 40
3 14 6 38 7 53 2 39 1 39 122 52 28 3 52 8 55 11 8 8 653 -2 671 -10z m-6090
-592 c19 -3 107 -8 195 -10 88 -2 172 -5 187 -5 34 -2 36 -9 39 -139 2 -63 8
-115 16 -132 8 -15 16 -49 18 -75 2 -26 7 -58 10 -70 3 -13 7 -32 10 -44 2
-11 7 -29 10 -39 6 -18 9 -34 21 -95 3 -16 7 -54 9 -82 2 -29 6 -57 9 -62 5
-8 -55 -7 -150 3 -23 2 -64 14 -90 26 -27 12 -67 27 -89 34 -22 7 -63 30 -90
50 -28 21 -63 47 -79 59 -45 33 -88 70 -147 124 -63 57 -100 137 -105 223 -2
40 -12 128 -17 153 -2 9 4 11 50 19 27 5 60 34 68 59 6 19 17 19 125 3z m1510
-27 c14 -4 44 -8 66 -9 l42 -1 -17 -66 c-28 -104 -42 -164 -47 -190 -5 -26
-15 -318 -13 -391 0 -25 2 -72 2 -105 l2 -60 -80 2 c-44 1 -183 4 -310 7 -215
4 -275 8 -298 23 -5 3 -26 7 -46 9 -20 2 -45 5 -56 8 -11 2 -23 5 -28 5 -4 1
-1 13 6 29 8 15 12 41 10 57 -2 17 -6 57 -8 90 -4 54 -9 91 -16 105 -1 3 -3
10 -4 15 -2 6 -4 12 -5 15 -7 19 -40 189 -38 198 1 4 -5 27 -12 52 -7 25 -14
85 -15 133 l-2 88 421 -4 c232 -2 432 -6 446 -10z m520 -32 c91 -5 177 -11
285 -20 28 -3 113 -7 190 -9 130 -4 193 -14 196 -33 1 -5 3 -26 4 -48 1 -22
16 -69 33 -105 18 -36 34 -85 37 -110 3 -25 7 -65 10 -90 3 -25 7 -56 10 -70
3 -14 8 -45 11 -70 4 -25 10 -54 14 -65 4 -11 5 -42 3 -70 -2 -27 -4 -94 -5
-147 -1 -53 -5 -95 -9 -93 -7 5 -50 11 -137 19 -29 3 -57 8 -62 11 -5 3 -26 8
-47 10 -45 5 -60 8 -138 30 -36 10 -113 18 -195 21 -201 7 -403 14 -422 14
-25 2 -38 55 -40 166 -3 162 4 352 13 392 5 20 12 53 15 72 3 19 10 49 15 65
5 17 16 56 25 88 l16 59 41 -7 c23 -3 85 -8 137 -10z m1220 -91 c178 -5 266
-10 315 -19 22 -4 56 -8 75 -9 l35 -1 1 -70 c3 -101 13 -267 18 -290 2 -12 5
-57 7 -100 1 -44 6 -84 9 -90 4 -5 8 -17 8 -25 1 -8 4 -31 7 -50 9 -55 15
-101 21 -160 l6 -56 -234 2 c-128 0 -244 5 -258 11 -14 5 -71 9 -128 8 l-103
-1 7 96 c9 149 11 253 3 276 -7 21 -17 72 -25 134 -2 19 -7 51 -10 70 -3 19
-7 65 -9 103 -2 52 -8 76 -27 105 -14 20 -27 47 -30 60 -6 22 -6 22 85 16 51
-3 153 -8 227 -10z m975 -69 c48 -8 183 -13 441 -14 l192 -1 -9 -39 c-12 -53
-24 -183 -34 -351 -2 -36 -6 -92 -9 -125 -13 -135 -13 -151 0 -184 8 -18 14
-39 14 -45 0 -9 -73 -12 -282 -13 -156 -1 -319 -4 -363 -8 -209 -16 -198 -19
-201 50 -1 22 -5 54 -9 70 -4 17 -8 51 -10 76 -2 26 -7 58 -11 70 -13 39 -15
51 -19 124 -3 39 -7 104 -10 145 -3 41 -7 107 -9 147 -2 39 -7 76 -11 82 -3 6
-4 15 -1 19 6 10 271 8 331 -3z m1090 -39 c17 -3 66 -9 110 -15 44 -6 96 -13
115 -16 19 -2 49 -9 65 -14 17 -6 50 -12 75 -15 25 -3 59 -7 75 -10 17 -2 57
-6 90 -7 56 -2 127 -18 139 -30 7 -7 -29 -114 -47 -143 -8 -12 -20 -43 -27
-71 -7 -27 -24 -64 -36 -80 -13 -17 -26 -46 -29 -64 -7 -41 -23 -73 -41 -84
-8 -4 -14 -13 -14 -19 0 -20 -114 -118 -137 -118 -13 0 -25 0 -28 0 -3 -1 -24
-8 -47 -17 -33 -12 -91 -16 -248 -19 -113 -1 -224 -5 -247 -7 -43 -5 -43 -5
-40 26 2 18 -1 43 -6 57 -10 27 -11 156 -1 172 4 5 8 62 10 126 2 65 6 140 9
167 3 28 8 71 10 96 2 25 9 57 14 72 10 25 10 25 108 21 54 -3 112 -6 128 -8z"/>
</g>
</svg>
